<svg width="136" height="27" viewBox="0 0 136 27" fill="none" xmlns="http://www.w3.org/2000/svg">
<path d="M13.957 19H16.6289V0.760742H0.857422V19H3.51074V3.26562H13.957V19ZM37.3359 9.88965C37.3359 11.8564 36.668 13.5264 35.3691 14.8809C34.0703 16.2354 32.4932 16.9033 30.6748 16.9033C28.8564 16.9033 27.2793 16.2354 25.9805 14.8623C24.6816 13.4893 24.0322 11.8379 24.0322 9.87109C24.0322 7.9043 24.6816 6.25293 25.9805 4.89844C27.2793 3.54395 28.8564 2.85742 30.6748 2.85742C32.4932 2.85742 34.0703 3.54395 35.3691 4.89844C36.668 6.25293 37.3359 7.92285 37.3359 9.88965ZM21.3789 9.88965C21.3789 12.5615 22.2695 14.8066 24.0879 16.6436C25.9062 18.4619 28.0957 19.3896 30.6934 19.3896C33.2725 19.3896 35.4619 18.4619 37.2617 16.6436C39.0801 14.8066 39.9707 12.5615 39.9707 9.88965C39.9707 7.21777 39.0801 4.97266 37.2617 3.13574C35.4619 1.29883 33.2725 0.371094 30.6934 0.371094C28.0957 0.371094 25.9062 1.29883 24.0879 3.13574C22.2695 4.97266 21.3789 7.21777 21.3789 9.88965ZM43.4219 9.87109C43.4219 12.5059 44.3125 14.751 46.1123 16.6064C47.8936 18.4619 50.0459 19.3711 52.5322 19.3711C53.4229 19.3711 54.2949 19.2412 55.1484 18.9629C56.002 18.6846 56.707 18.3877 57.2451 18.0537C57.8018 17.7197 58.3213 17.3486 58.8037 16.9219C59.3047 16.4951 59.6387 16.1982 59.7871 16.0127C59.9355 15.8271 60.0469 15.6973 60.1211 15.5859L58.2285 13.8789L57.6162 14.6211C57.1895 15.1406 56.5029 15.6416 55.5566 16.1426C54.5918 16.6621 53.5898 16.9033 52.5322 16.9033C50.7881 16.9033 49.2666 16.2354 47.9863 14.8809C46.7061 13.5264 46.0752 11.8564 46.0752 9.88965C46.0752 7.92285 46.7061 6.25293 47.9863 4.89844C49.2666 3.54395 50.7881 2.85742 52.5322 2.85742C53.2188 2.85742 53.8867 2.96875 54.5176 3.17285C55.1484 3.39551 55.6494 3.63672 56.0576 3.89648C56.4473 4.15625 56.8184 4.47168 57.1523 4.82422C57.4863 5.19531 57.709 5.43652 57.8018 5.56641C57.9131 5.71484 57.9873 5.80762 58.0244 5.88184L59.9355 3.98926L59.1377 3.11719C58.6182 2.52344 57.7275 1.91113 56.5029 1.29883C55.2783 0.686523 53.9424 0.371094 52.5137 0.371094C50.0459 0.371094 47.9121 1.29883 46.1123 3.1543C44.3125 5.00977 43.4219 7.23633 43.4219 9.87109ZM66.207 0.760742V6.08594C66.207 9.07324 66.04 11.374 65.7432 12.9883C65.4463 14.584 65.0752 15.623 64.6299 16.0684C64.1846 16.5137 63.5723 16.7363 62.793 16.7363C62.2734 16.7363 61.7725 16.6064 61.2715 16.3652V19.0186L61.5312 19.0928C61.6797 19.167 61.9023 19.2227 62.2178 19.2969C62.5332 19.3525 62.8486 19.3896 63.1641 19.3896C64.0732 19.3896 64.8525 19.2041 65.502 18.833C66.1328 18.4619 66.7266 17.8125 67.2646 16.8848C67.7842 15.957 68.1924 14.584 68.4521 12.8027C68.7119 11.0215 68.8604 8.77637 68.8604 6.10449V3.24707H76.8389V19.0186H79.5107V0.779297L66.207 0.760742ZM89.5674 21.6533C88.8809 23.5645 87.7305 24.5107 86.1162 24.5107C85.4854 24.5107 84.8545 24.3809 84.2236 24.1211V26.6074L84.4834 26.6816C84.6689 26.7559 84.9658 26.8301 85.3369 26.8857C85.708 26.96 86.0977 26.9785 86.5059 26.9785C87.8232 26.9785 88.918 26.5889 89.79 25.7725C90.6436 24.9561 91.46 23.583 92.2207 21.6533L100.589 0.760742H97.7314L91.8496 15.5859L85.9492 0.760742H83.0918L90.5137 19L89.5674 21.6533ZM116.36 0.760742H104.207V19H106.86V3.22852H116.36V0.760742ZM133.468 0.760742L122.446 14.4355V0.760742H119.793V19H122.057L133.078 5.3252V19H135.75V0.760742H133.468Z" fill="white"/>
</svg>
